<?xml version="1.0" encoding="iso-8859-1"?>
<!-- Uploaded to: SVG Repo, www.svgrepo.com, Generator: SVG Repo Mixer Tools -->
<svg fill="#222" height="800px" width="800px" version="1.1" id="Layer_1" xmlns="http://www.w3.org/2000/svg" xmlns:xlink="http://www.w3.org/1999/xlink" 
	 viewBox="0 0 511.999 511.999" xml:space="preserve">
<g>
	<g>
		<g>
			<path d="M493.263,5.091C491.491,1.945,488.161,0,484.551,0c-0.008,0-0.016,0-0.022,0L309.345,0.399
				c-3.429,0.008-6.613,1.771-8.439,4.672L193.615,175.467c-1.427,2.267-1.885,5.011-1.272,7.618
				c0.613,2.607,2.247,4.86,4.535,6.252l8.241,5.017L18.932,496.757c-2.593,4.211-1.718,9.686,2.06,12.879
				c1.865,1.577,4.161,2.363,6.456,2.363c2.352,0,4.703-0.827,6.587-2.476l248.106-217.174c2.805-2.455,4.012-6.266,3.131-9.888
				l-11.226-46.153l53.08,32.311c1.579,0.961,3.38,1.458,5.199,1.458c0.79,0,1.583-0.094,2.363-0.283
				c2.577-0.627,4.8-2.252,6.179-4.517L493.093,15.2C494.974,12.109,495.04,8.243,493.263,5.091z M70.664,450.882l151.505-246.073
				l27.739,16.885l14.497,59.602L70.664,450.882z M328.982,246.337l-113.033-68.805l98.947-157.145l151.837-0.346L328.982,246.337z"
				/>
			<path d="M236.296,229.738c-4.618-3.027-10.818-1.736-13.845,2.882l-44.388,67.732c-3.028,4.619-1.737,10.818,2.882,13.845
				c1.69,1.108,3.592,1.637,5.472,1.637c3.258,0,6.453-1.59,8.373-4.519l44.388-67.732
				C242.206,238.964,240.915,232.765,236.296,229.738z"/>
			<path d="M270.525,137.117c-4.695-2.911-10.858-1.466-13.77,3.227l-13.397,21.599c-2.911,4.693-1.466,10.858,3.227,13.769
				c1.641,1.018,3.463,1.503,5.262,1.503c3.345,0,6.614-1.678,8.508-4.73l13.397-21.599
				C276.663,146.193,275.218,140.028,270.525,137.117z"/>
			<path d="M299.364,90.464c-4.717-2.872-10.869-1.374-13.741,3.342l-9.118,14.979c-2.871,4.718-1.375,10.87,3.343,13.742
				c1.624,0.988,3.418,1.459,5.189,1.459c3.375,0,6.669-1.708,8.552-4.801l9.118-14.979
				C305.578,99.488,304.082,93.336,299.364,90.464z"/>
		</g>
	</g>
</g>
</svg>